<?xml version="1.0" encoding="utf-8"?>
<!-- Generator: Adobe Illustrator 19.1.0, SVG Export Plug-In . SVG Version: 6.00 Build 0)  -->
<svg version="1.1" id="Layer_1" xmlns="http://www.w3.org/2000/svg" xmlns:xlink="http://www.w3.org/1999/xlink" x="0px" y="0px"
	 viewBox="-188 189.6 122.4 122.4" style="enable-background:new -188 189.6 122.4 122.4;" xml:space="preserve">
<style type="text/css">
	.st0{display:none;}
	.st1{fill:#60D3D1;}
	.st2{fill:#2B2B2B;}
</style>
<g id="gray_background" class="st0">
</g>
<g id="Layer_1_1_">
	<g>
		<g>
			<g>
				<g>
					<polygon class="st1" points="-148.1,212.5 -172.9,226.9 -172.9,255.5 -148.1,269.8 -123.3,255.5 -123.3,226.9 					"/>
				</g>
			</g>
			<g>
				<g>
					<path class="st2" d="M-155.2,264.9c-0.4,0-0.7-0.1-1.1-0.3l-24.8-14.3c-0.7-0.4-1.1-1.1-1.1-1.8v-28.7c0-0.8,0.4-1.5,1.1-1.8
						l24.9-14.4c0.7-0.4,1.5-0.4,2.1,0l24.8,14.3c0.7,0.4,1.1,1.1,1.1,1.8v28.7c0,0.8-0.4,1.5-1.1,1.8l-24.8,14.4
						C-154.4,264.8-154.8,264.9-155.2,264.9z M-177.9,247.2l22.7,13.1l22.7-13.1V221l-22.7-13.1l-22.7,13.1V247.2z"/>
				</g>
			</g>
			<g>
				<g>
					<path class="st2" d="M-155.2,264.9c-1.2,0-2.1-1-2.1-2.1v-28.7c0-1.2,1-2.1,2.1-2.1c1.1,0,2.1,1,2.1,2.1v28.7
						C-153,263.9-154,264.9-155.2,264.9z"/>
				</g>
			</g>
			<g>
				<g>
					<path class="st2" d="M-155.2,236.2c-0.4,0-0.7-0.1-1.1-0.3l-24.8-14.3c-1-0.6-1.4-1.9-0.8-2.9c0.6-1,1.9-1.4,2.9-0.8l24.8,14.3
						c1,0.6,1.4,1.9,0.8,2.9C-153.7,235.9-154.4,236.2-155.2,236.2z"/>
				</g>
			</g>
			<g>
				<g>
					<path class="st2" d="M-155.2,236.2c-0.7,0-1.4-0.4-1.8-1.1c-0.6-1-0.2-2.3,0.8-2.9l24.8-14.3c1-0.6,2.3-0.2,2.9,0.8
						c0.6,1,0.2,2.3-0.8,2.9l-24.8,14.4C-154.4,236.1-154.8,236.2-155.2,236.2z"/>
				</g>
			</g>
		</g>
		<g>
			<g>
				<path class="st2" d="M-123.5,254.6c-0.4,0-0.7-0.1-1.1-0.3l-19.2-11.1c-1-0.6-1.4-1.9-0.8-2.9c0.6-1,1.9-1.4,2.9-0.8l19.3,11.1
					c1,0.6,1.4,1.9,0.8,2.9C-122,254.2-122.7,254.6-123.5,254.6z"/>
			</g>
		</g>
		<g>
			<g>
				<g>
					<path class="st2" d="M-98.6,297.9c-0.4,0-0.7-0.1-1.1-0.3l-24.7-14.3c-0.7-0.4-1.1-1.1-1.1-1.8v-28.7c0-0.8,0.4-1.5,1.1-1.8
						l24.8-14.4c0.7-0.4,1.5-0.4,2.1,0l24.8,14.3c0.7,0.4,1.1,1.1,1.1,1.8v28.7c0,0.8-0.4,1.5-1.1,1.8l-24.8,14.4
						C-97.8,297.8-98.2,297.9-98.6,297.9z M-121.2,280.2l22.7,13.1l22.7-13.1V254l-22.8-13.1l-22.6,13.1V280.2z"/>
				</g>
			</g>
			<g>
				<g>
					<path class="st2" d="M-98.6,297.9c-1.2,0-2.1-1-2.1-2.1v-28.7c0-1.2,1-2.1,2.1-2.1s2.1,1,2.1,2.1v28.7
						C-96.4,297-97.4,297.9-98.6,297.9z"/>
				</g>
			</g>
			<g>
				<g>
					<path class="st2" d="M-98.6,269.3c-0.4,0-0.7-0.1-1.1-0.3l-24.7-14.4c-1-0.6-1.4-1.9-0.8-2.9c0.6-1,1.9-1.4,2.9-0.8l24.8,14.3
						c1,0.6,1.4,1.9,0.8,2.9C-97.1,268.9-97.8,269.3-98.6,269.3z"/>
				</g>
			</g>
			<g>
				<g>
					<path class="st2" d="M-98.6,269.3c-0.7,0-1.4-0.4-1.8-1.1c-0.6-1-0.2-2.3,0.8-2.9l24.8-14.3c1-0.6,2.3-0.2,2.9,0.8
						s0.2,2.3-0.8,2.9L-97.5,269C-97.8,269.2-98.2,269.3-98.6,269.3z"/>
				</g>
			</g>
		</g>
	</g>
</g>
</svg>
