<?xml version="1.0" encoding="utf-8"?>
<!-- Generator: Adobe Illustrator 21.1.0, SVG Export Plug-In . SVG Version: 6.00 Build 0)  -->
<svg version="1.1" xmlns="http://www.w3.org/2000/svg" xmlns:xlink="http://www.w3.org/1999/xlink" x="0px" y="0px"
	 viewBox="0 0 122.4 122.4" style="enable-background:new 0 0 122.4 122.4;" xml:space="preserve">
<style type="text/css">
	.st0{display:none;}
	.st1{display:inline;fill:#FFFFFF;}
	.st2{display:inline;}
	.st3{fill:#2B2B2B;}
	.st4{fill:#FFFFFF;}
	.st5{fill:#5FD3D3;}
	.st6{fill:none;stroke:#2B2B2B;stroke-width:4.25;stroke-linecap:round;stroke-linejoin:round;stroke-miterlimit:10;}
	.st7{display:inline;fill:#2B2B2B;}
	.st8{fill:#60D3D1;}
	.st9{fill:none;stroke:#2B2B2B;stroke-width:4.5;stroke-linecap:round;stroke-linejoin:round;stroke-miterlimit:10;}
	.st10{fill:#66D6D3;}
	.st11{fill:#60D3D1;stroke:#2B2B2B;stroke-width:4.5;stroke-linecap:round;stroke-linejoin:round;stroke-miterlimit:10;}
	.st12{fill:none;stroke:#60D3D1;stroke-width:4.5;stroke-linecap:round;stroke-linejoin:round;}
	.st13{fill:none;stroke:#60D3D1;stroke-width:4.5;stroke-linecap:round;stroke-linejoin:round;stroke-dasharray:7.8741,12.7954;}
	.st14{fill:none;stroke:#60D3D1;stroke-width:4.5;stroke-linecap:round;stroke-linejoin:round;stroke-miterlimit:10;}
	
		.st15{fill:none;stroke:#60D3D1;stroke-width:4.5;stroke-linecap:round;stroke-linejoin:round;stroke-miterlimit:10;stroke-dasharray:8,13;}
	.st16{fill:none;stroke:#2B2B2B;stroke-width:4.25;stroke-miterlimit:10;}
	.st17{fill:none;stroke:#2B2B2B;stroke-width:4.5;stroke-linecap:round;stroke-linejoin:round;}
	.st18{fill:none;stroke:#2B2B2B;stroke-width:4.5;stroke-linecap:round;stroke-linejoin:round;stroke-dasharray:7.8741,12.7954;}
	
		.st19{fill:none;stroke:#2B2B2B;stroke-width:4.5;stroke-linecap:round;stroke-linejoin:round;stroke-miterlimit:10;stroke-dasharray:8,13;}
	.st20{fill:#7FDCDC;}
	.st21{fill:none;stroke:#2B2B2B;stroke-width:4.5;stroke-linejoin:round;stroke-miterlimit:10;}
	.st22{fill:none;stroke:#2B2B2B;stroke-width:4.25;stroke-linecap:round;stroke-miterlimit:10;}
	
		.st23{fill:none;stroke:#2B2B2B;stroke-width:8;stroke-linecap:round;stroke-linejoin:round;stroke-miterlimit:10;stroke-dasharray:0,16;}
	
		.st24{fill:none;stroke:#60D3D1;stroke-width:8;stroke-linecap:round;stroke-linejoin:round;stroke-miterlimit:10;stroke-dasharray:0,16;}
	.st25{fill:none;stroke:#2B2B2B;stroke-width:4;stroke-linecap:round;stroke-linejoin:round;stroke-miterlimit:10;}
	.st26{fill:none;stroke:#2B2B2B;stroke-width:3;stroke-linecap:round;stroke-linejoin:round;stroke-miterlimit:10;}
	.st27{fill:#FFFFFF;stroke:#2B2B2B;stroke-width:4.5;stroke-linecap:round;stroke-linejoin:round;stroke-miterlimit:10;}
	.st28{opacity:0.7;}
	.st29{opacity:0.7;fill:#00BAB6;}
	.st30{fill:none;stroke:#2B2B2B;stroke-width:4.5;stroke-linecap:round;stroke-linejoin:round;stroke-dasharray:7.6106,12.3672;}
	.st31{fill:none;stroke:#60D3D1;stroke-width:4.5;stroke-linecap:round;stroke-linejoin:round;stroke-dasharray:7.6106,12.3672;}
	.st32{fill:none;stroke:#2B2B2B;stroke-width:4.25;stroke-linecap:round;stroke-linejoin:round;}
	.st33{fill:#2B2B2B;stroke:#2B2B2B;stroke-width:2;stroke-miterlimit:10;}
	.st34{fill:none;stroke:#2B2B2B;stroke-width:4.5;stroke-linecap:round;stroke-linejoin:round;stroke-dasharray:7.4662,12.1326;}
	.st35{fill:none;stroke:#2B2B2B;stroke-width:4.5;stroke-linecap:round;stroke-linejoin:round;stroke-dasharray:7.9336,12.8921;}
	.st36{fill:none;stroke:#60D3D1;stroke-width:4.5;stroke-linecap:round;stroke-linejoin:round;stroke-dasharray:7.4662,12.1326;}
	.st37{fill:none;stroke:#60D3D1;stroke-width:4.5;stroke-linecap:round;stroke-linejoin:round;stroke-dasharray:7.9336,12.8921;}
	.st38{fill:none;stroke:#2B2B2B;stroke-width:4.5;stroke-miterlimit:10;}
	.st39{fill:none;stroke:#2B2B2B;stroke-width:4.5;stroke-linecap:round;stroke-miterlimit:10;}
	.st40{fill:none;stroke:#60D3D1;stroke-width:4.5;stroke-miterlimit:10;}
	.st41{fill:none;stroke:#60D3D1;stroke-width:4.5;stroke-linecap:round;stroke-miterlimit:10;}
	.st42{fill:none;}
	.st43{fill:none;stroke:#2B2B2B;stroke-width:4.5;stroke-linecap:round;stroke-linejoin:round;stroke-dasharray:7.8378,12.1921;}
	.st44{fill:none;stroke:#60D3D1;stroke-width:4.5;stroke-linecap:round;stroke-linejoin:round;stroke-dasharray:7.8378,12.1921;}
	.st45{fill:none;stroke:#2B2B2B;stroke-width:5.04;stroke-linecap:round;stroke-linejoin:round;}
	.st46{fill:none;stroke:#60D3D1;stroke-width:5.04;stroke-linecap:round;stroke-linejoin:round;}
	.st47{fill:none;stroke:#2B2B2B;stroke-width:4.5;stroke-linecap:round;stroke-linejoin:round;stroke-dasharray:8.0115,13.0187;}
	.st48{fill:none;stroke:#2B2B2B;stroke-width:4.5;stroke-linecap:round;stroke-linejoin:round;stroke-dasharray:8.1839,13.2989;}
	.st49{fill:none;stroke:#60D3D1;stroke-width:4.5;stroke-linecap:round;stroke-linejoin:round;stroke-dasharray:8.0115,13.0187;}
	.st50{fill:none;stroke:#60D3D1;stroke-width:4.5;stroke-linecap:round;stroke-linejoin:round;stroke-dasharray:8.1839,13.2989;}
	.st51{fill:none;stroke:#60D3D1;stroke-width:4.25;stroke-linecap:round;stroke-linejoin:round;stroke-miterlimit:10;}
	.st52{fill:none;stroke:#2B2B2B;stroke-width:4.5;stroke-linecap:round;stroke-linejoin:round;stroke-dasharray:8.2632,13.4276;}
	.st53{fill:none;stroke:#60D3D1;stroke-width:4.5;stroke-linecap:round;stroke-linejoin:round;stroke-dasharray:8.2632,13.4276;}
	.st54{fill:none;stroke:#2B2B2B;stroke-width:4.5;stroke-linecap:round;stroke-linejoin:round;stroke-dasharray:6.8302,11.0991;}
	.st55{fill:none;stroke:#60D3D1;stroke-width:4.5;stroke-linecap:round;stroke-linejoin:round;stroke-dasharray:6.8302,11.0991;}
	.st56{fill:none;stroke:#2B2B2B;stroke-width:4.5;stroke-linecap:round;stroke-linejoin:round;stroke-dasharray:8.0289,13.0469;}
	.st57{fill:none;stroke:#60D3D1;stroke-width:4.5;stroke-linecap:round;stroke-linejoin:round;stroke-dasharray:8.0289,13.0469;}
	.st58{fill:none;stroke:#2B2B2B;stroke-width:4.5;stroke-linecap:round;stroke-linejoin:round;stroke-dasharray:10.764,13.9932;}
	.st59{fill:none;stroke:#60D3D1;stroke-width:4.5;stroke-linecap:round;stroke-linejoin:round;stroke-dasharray:10.764,13.9932;}
	.st60{fill:none;stroke:#60D3D1;stroke-width:4.5;stroke-linejoin:round;stroke-miterlimit:10;}
</style>
<g id="labels" class="st0">
	<rect x="-5875.3" y="-863.9" class="st1" width="6257.5" height="1291.4"/>
</g>
<g id="gray_background" class="st0">
</g>
<g id="Layer_1">
	<g>
		<g>
			<g>
				<path class="st8" d="M104.1,57.7l-2.4-25.1l-7.4,6.8c-6.2-4.5-21.4-13.1-37.8-8.8C38.3,35.3,33.2,49,31.1,58.1
					c0,0,12-14.5,24.7-15.6c8-0.7,16.6,0.6,24.8,8.7l-7.2,6.6L104.1,57.7z"/>
			</g>
		</g>
		<g>
			<g>
				<path class="st3" d="M25.1,54.2c-0.3,0-0.6-0.1-0.9-0.2c-0.9-0.4-1.3-1.4-1.1-2.4c1.4-5.8,5.6-23.5,27-29.1
					c16.8-4.4,32.1,4.1,38.2,8.1l6.1-5.6c0.6-0.5,1.4-0.7,2.2-0.4c0.8,0.3,1.3,1,1.4,1.8l2.4,25.1c0.1,0.6-0.1,1.2-0.5,1.6
					c-0.4,0.4-1,0.7-1.6,0.7L67.5,54c0,0,0,0,0,0c-0.9,0-1.7-0.5-2-1.3c-0.3-0.8-0.1-1.7,0.5-2.3l5.5-5.1c-6-5.3-13-7.4-21.5-6.6
					c-11.7,1-23.2,14.7-23.3,14.8C26.3,54,25.7,54.2,25.1,54.2z M53.3,34.2c9,0,16.3,3.1,22.8,9.5c0.4,0.4,0.6,1,0.6,1.5
					c0,0.6-0.3,1.1-0.7,1.5L73,49.7l22.8-0.1L94.1,31l-4.2,3.9c-0.7,0.7-1.9,0.8-2.7,0.2c-4.3-3.1-19.5-12.8-36.1-8.5
					C38.9,29.8,33,37.1,29.8,44.3c4.9-4.3,12.2-9.3,19.8-9.9C50.9,34.3,52.1,34.2,53.3,34.2z"/>
			</g>
		</g>
		<g>
			<g id="XMLID_144_">
				<path class="st3" d="M61.4,77.3c-3.7,0-7.2-1.4-9.8-3.8c-2.7-2.5-4.2-5.9-4.2-9.5c0-1.2,0.9-2.1,2.1-2.1c1.2,0,2.1,0.9,2.1,2.1
					c0,2.4,1,4.7,2.9,6.4c1.9,1.7,4.3,2.7,6.9,2.7c0,0,0,0,0.1,0c2.7,0,5.1-1,7-2.8c1.8-1.7,2.8-4,2.8-6.5c0-1.2,0.9-2.1,2.1-2.1
					c0,0,0,0,0,0c1.2,0,2.1,0.9,2.1,2.1c0,3.6-1.4,7-4.1,9.6c-2.6,2.5-6.2,3.9-9.9,4C61.4,77.3,61.4,77.3,61.4,77.3z"/>
			</g>
			<g id="XMLID_143_">
				<path class="st3" d="M57.4,100.4c-1.3,0-2.6-0.5-3.6-1.4c-1-0.9-1.6-2.2-1.6-3.5l0-4.2c0-0.3-0.2-0.5-0.5-0.6l-3.1-1.2
					c-0.4-0.1-0.8-0.1-1,0.2l-3.1,3c-2,1.9-5.2,1.9-7.2,0l-5.9-5.5c-1-0.9-1.6-2.2-1.6-3.5c0-1.3,0.5-2.6,1.5-3.6l3.1-3
					c0.2-0.2,0.3-0.5,0.2-0.7l-1.3-2.9c-0.1-0.3-0.5-0.5-0.8-0.5c0,0,0,0,0,0L28,73c0,0,0,0,0,0c-2.8,0-5.1-2.2-5.1-4.9l0-4.2
					c0-1.2,0.9-2.1,2.1-2.1c0,0,0,0,0,0c1.2,0,2.1,0.9,2.1,2.1l0,4.2c0,0.4,0.4,0.7,0.9,0.7c0,0,0,0,0,0l4.4,0c0,0,0,0,0,0
					c2.1,0,3.9,1.2,4.7,3l1.3,2.9c0.8,1.9,0.4,4-1.1,5.5l-3.1,3c-0.2,0.2-0.2,0.3-0.2,0.5s0,0.3,0.2,0.5l5.9,5.5
					c0.4,0.3,1,0.3,1.3,0l3.1-3c1.5-1.4,3.6-1.8,5.5-1.1l3.1,1.2c1.9,0.8,3.2,2.5,3.2,4.6l0,4.2c0,0.2,0.1,0.4,0.2,0.5
					c0.1,0.1,0.4,0.3,0.7,0.2l8.4-0.1c0.5,0,0.9-0.3,0.9-0.7l0-4.2c0-2,1.2-3.9,3.2-4.6l3.1-1.2c1.9-0.7,4-0.3,5.5,1l3.1,2.9
					c0.4,0.3,1,0.3,1.3,0l5.9-5.6c0.2-0.2,0.2-0.3,0.2-0.5s0-0.3-0.2-0.5l-3.1-2.9c-1.5-1.4-2-3.6-1.2-5.5l1.3-3
					c0.8-1.8,2.6-3,4.7-3l4.4,0c0.3,0,0.6-0.2,0.7-0.3c0.1-0.1,0.2-0.2,0.2-0.5l0-3.7c0-1.2,0.9-2.1,2.1-2.1c0,0,0,0,0,0
					c1.2,0,2.1,0.9,2.1,2.1l0,3.7c0,1.3-0.5,2.6-1.5,3.6c-1,0.9-2.2,1.4-3.6,1.4l-4.4,0c-0.4,0-0.7,0.2-0.8,0.5l-1.3,3
					c-0.1,0.2,0,0.5,0.2,0.7l3.1,2.9c1,0.9,1.6,2.2,1.6,3.5s-0.5,2.6-1.5,3.6l-5.9,5.6c-2,1.9-5.2,1.9-7.2,0l-3.1-2.9
					c-0.3-0.2-0.7-0.3-1-0.2l-3.1,1.2c-0.3,0.1-0.5,0.4-0.5,0.6l0,4.2c0,2.7-2.3,5-5.1,5L57.4,100.4
					C57.4,100.4,57.4,100.4,57.4,100.4z"/>
			</g>
		</g>
	</g>
</g>
</svg>
