<?xml version="1.0" encoding="utf-8"?>
<!-- Generator: Adobe Illustrator 19.1.0, SVG Export Plug-In . SVG Version: 6.00 Build 0)  -->
<svg version="1.1" id="Layer_1" xmlns="http://www.w3.org/2000/svg" xmlns:xlink="http://www.w3.org/1999/xlink" x="0px" y="0px"
	 viewBox="-188 189.6 122.4 122.4" style="enable-background:new -188 189.6 122.4 122.4;" xml:space="preserve">
<style type="text/css">
	.st0{display:none;}
	.st1{fill:#60D3D1;}
	.st2{fill:#2B2B2B;}
</style>
<g id="gray_background" class="st0">
</g>
<g id="Layer_1_1_">
	<g>
		<g>
			<g>
				<g>
					<path class="st1" d="M-87.5,290.5v-65.4c0-5.6-15.2-10.1-33.9-10.1s-33.8,4.6-33.8,10.1v65.4c0,5.6,15.2,10.1,33.9,10.1
						S-87.5,296.1-87.5,290.5z"/>
				</g>
			</g>
		</g>
		<g>
			<g>
				<path class="st2" d="M-128,230.7c-17.9,0-36-4.2-36-12.2s18.1-12.2,36-12.2s36,4.2,36,12.2S-110.1,230.7-128,230.7z M-128,210.5
					c-20.5,0-31.7,5.2-31.7,7.9s11.2,7.9,31.7,7.9s31.7-5.2,31.7-7.9S-107.5,210.5-128,210.5z"/>
			</g>
		</g>
		<g>
			<g>
				<path class="st2" d="M-156.1,247.1c-5.2-2.1-7.8-4.8-7.8-7.9h4.2c0,0.9,1.4,2.4,5.2,4L-156.1,247.1z"/>
			</g>
		</g>
		<g>
			<g>
				<g>
					<path class="st2" d="M-128,296c-17.9,0-36-4.2-36-12.2h4.2c0,2.7,11.2,7.9,31.7,7.9s31.7-5.2,31.7-7.9h4.4
						C-92,291.8-110.1,296-128,296z"/>
				</g>
			</g>
			<g>
				<g>
					<rect x="-164" y="218.5" class="st2" width="4.2" height="65.4"/>
				</g>
			</g>
			<g>
				<g>
					<rect x="-96.3" y="218.5" class="st2" width="4.2" height="65.4"/>
				</g>
			</g>
		</g>
		<g>
			<g>
				<path class="st2" d="M-99.8,247.1l-1.6-3.9c3.8-1.6,5.2-3.1,5.2-4h4.2C-92,242.4-94.6,245-99.8,247.1z"/>
			</g>
		</g>
		<g>
			<g>
				<path class="st2" d="M-156.1,269.8c-5.2-2.1-7.8-4.8-7.8-7.9h4.2c0,0.9,1.4,2.4,5.2,4L-156.1,269.8z"/>
			</g>
		</g>
		<g>
			<g>
				<path class="st2" d="M-99.8,269.8l-1.6-3.9c3.8-1.6,5.2-3.1,5.2-4h4.2C-92,265-94.6,267.7-99.8,269.8z"/>
			</g>
		</g>
	</g>
	<g>
		<g>
			<path class="st2" d="M-142.1,280c-1.8,0-3.4-0.5-4.6-1.7c-5-5,1.7-17.1,11-26.3l0,0c4.8-4.8,9.9-8.6,14.5-10.7
				c6.8-3.2,10.1-1.9,11.8-0.2c5,5-1.7,17.1-11,26.3C-127.4,274.4-136.1,280-142.1,280z M-132.7,255c-9.4,9.4-12.8,18.5-11,20.3
				c1.9,1.9,10.9-1.6,20.3-11c4.4-4.4,7.9-9.2,9.9-13.3c1.8-3.8,1.8-6.2,1.1-7c-0.7-0.8-3.2-0.7-7,1.1
				C-123.5,247-128.2,250.5-132.7,255L-132.7,255z"/>
		</g>
	</g>
	<g>
		<g>
			<circle class="st2" cx="-128" cy="259.6" r="3.9"/>
		</g>
	</g>
	<g>
		<g>
			<path class="st2" d="M-113.9,280c-6,0-14.6-5.6-21.7-12.7l0,0c-9.3-9.3-16-21.3-11-26.3c1.6-1.6,5-2.9,11.8,0.2
				c4.6,2.2,9.8,6,14.5,10.7c9.3,9.3,16,21.3,11,26.3C-110.5,279.5-112.1,280-113.9,280z M-132.7,264.3c9.4,9.4,18.5,12.9,20.3,11
				c0.7-0.7,0.7-3.2-1.1-7c-2-4.2-5.5-8.9-9.9-13.3s-9.2-7.9-13.3-9.9c-3.8-1.8-6.2-1.8-7-1.1C-145.5,245.8-142.1,254.9-132.7,264.3
				L-132.7,264.3z"/>
		</g>
	</g>
	<g>
		<g>
			<path class="st2" d="M-142.1,280c-1.8,0-3.4-0.5-4.6-1.7c-5-5,1.7-17.1,11-26.3l0,0c4.8-4.8,9.9-8.6,14.5-10.7
				c6.8-3.2,10.1-1.9,11.8-0.2c5,5-1.7,17.1-11,26.3C-127.4,274.4-136.1,280-142.1,280z M-132.7,255c-9.4,9.4-12.8,18.5-11,20.3
				c1.9,1.9,10.9-1.6,20.3-11c4.4-4.4,7.9-9.2,9.9-13.3c1.8-3.8,1.8-6.2,1.1-7c-0.7-0.8-3.2-0.7-7,1.1
				C-123.5,247-128.2,250.5-132.7,255L-132.7,255z"/>
		</g>
	</g>
</g>
</svg>
