<?xml version="1.0" encoding="utf-8"?>
<!-- Generator: Adobe Illustrator 19.1.0, SVG Export Plug-In . SVG Version: 6.00 Build 0)  -->
<svg version="1.1" id="Layer_1" xmlns="http://www.w3.org/2000/svg" xmlns:xlink="http://www.w3.org/1999/xlink" x="0px" y="0px"
	 viewBox="-80 81.6 338.4 338.4" style="enable-background:new -80 81.6 338.4 338.4;" xml:space="preserve">
<style type="text/css">
	.st0{display:none;}
	.st1{fill:#60D3D1;}
	.st2{fill:#2B2B2B;}
</style>
<g id="gray_background" class="st0">
</g>
<g id="Layer_1_1_">
	<g>
		<g>
			<circle class="st1" cx="104.8" cy="258.4" r="45.8"/>
		</g>
		<g>
			<path class="st2" d="M95.6,297.2c-26.5,0-48.1-21.6-48.1-48.1S69.1,201,95.6,201s48.1,21.6,48.1,48.1S122.1,297.2,95.6,297.2z
				 M95.6,205.6c-24,0-43.6,19.5-43.6,43.6s19.5,43.6,43.6,43.6s43.6-19.5,43.6-43.6S119.6,205.6,95.6,205.6z"/>
		</g>
		<g>
			<path class="st2" d="M209.4,318.4c-0.4,0-0.8-0.1-1.2-0.3L134.5,274c-1.1-0.6-1.4-2-0.8-3.1c0.6-1.1,2-1.4,3.1-0.8l73.7,44.1
				c1.1,0.6,1.4,2,0.8,3.1C210.9,318,210.1,318.4,209.4,318.4z"/>
		</g>
		<g>
			<path class="st2" d="M56,226.2c-0.4,0-0.8-0.1-1.2-0.3l-73.7-44.1c-1.1-0.6-1.4-2-0.8-3.1c0.6-1.1,2-1.4,3.1-0.8L57.1,222
				c1.1,0.6,1.4,2,0.8,3.1C57.5,225.8,56.7,226.2,56,226.2z"/>
		</g>
		<g>
			<path class="st2" d="M134.4,325.2c-0.8,0-1.6-0.4-2-1.2l-17.5-32.8c-0.6-1.1-0.2-2.5,0.9-3c1.1-0.6,2.5-0.2,3,0.9l17.5,32.8
				c0.6,1.1,0.2,2.5-0.9,3C135.1,325.1,134.7,325.2,134.4,325.2z"/>
		</g>
		<g>
			<path class="st2" d="M73.7,209.3c-0.8,0-1.6-0.4-2-1.2L57,180.6c-0.6-1.1-0.2-2.5,0.9-3c1.1-0.6,2.5-0.2,3,0.9L75.6,206
				c0.6,1.1,0.2,2.5-0.9,3C74.4,209.2,74,209.3,73.7,209.3z"/>
		</g>
		<g>
			<path class="st2" d="M49.2,365c-0.3,0-0.6-0.1-0.8-0.2c-1.2-0.5-1.7-1.8-1.2-2.9L76,290.2c0.5-1.2,1.8-1.7,2.9-1.2
				c1.2,0.5,1.7,1.8,1.2,2.9l-28.8,71.7C50.9,364.5,50.1,365,49.2,365z"/>
		</g>
		<g>
			<path class="st2" d="M112.3,207.2c-0.3,0-0.6-0.1-0.8-0.2c-1.2-0.5-1.7-1.8-1.2-2.9l28.6-71.1c0.5-1.2,1.8-1.7,2.9-1.2
				c1.2,0.5,1.7,1.8,1.2,2.9l-28.6,71.1C114.1,206.7,113.2,207.2,112.3,207.2z"/>
		</g>
		<g>
			<path class="st2" d="M6.1,290.9c-0.9,0-1.7-0.5-2-1.3c-0.5-1.1,0-2.5,1.1-3l47.6-22c1.1-0.5,2.5,0,3,1.1s0,2.5-1.1,3l-47.6,22
				C6.7,290.8,6.4,290.9,6.1,290.9z"/>
		</g>
		<g>
			<path class="st2" d="M136.8,230.5c-0.9,0-1.7-0.5-2-1.3c-0.5-1.1,0-2.5,1.1-3l47.6-22c1.1-0.5,2.5,0,3,1.1c0.5,1.1,0,2.5-1.1,3
				l-47.6,22C137.5,230.4,137.2,230.5,136.8,230.5z"/>
		</g>
		<g>
			<path class="st2" d="M-20.2,329.2c-5.3,0-10.6-1.5-15.2-4.4c-6.5-4.1-10.9-10.4-12.6-17.8c-1.7-7.4-0.4-15.1,3.7-21.5
				c4.1-6.5,10.4-10.9,17.8-12.6c15.4-3.5,30.7,6.2,34.2,21.5c1.7,7.4,0.4,15.1-3.7,21.5c-4.1,6.5-10.4,10.9-17.8,12.6
				C-15.9,328.9-18.1,329.2-20.2,329.2z M-20.1,276.5c-1.8,0-3.5,0.2-5.3,0.6c-6.3,1.4-11.6,5.2-15,10.6c-3.4,5.4-4.5,11.9-3.1,18.2
				c2.9,12.9,15.8,21.1,28.8,18.1c6.3-1.4,11.6-5.2,15-10.6c3.4-5.4,4.5-11.9,3.1-18.2C0.8,284.1-9.1,276.5-20.1,276.5z"/>
		</g>
		<g>
			<path class="st2" d="M142,357.5c-8.7,0-16.7-6-18.7-14.9c-2.3-10.3,4.1-20.6,14.4-22.9c10.3-2.3,20.6,4.1,22.9,14.4l0,0
				c2.3,10.3-4.1,20.6-14.4,22.9C144.8,357.3,143.4,357.5,142,357.5z M142,323.7c-1.1,0-2.2,0.1-3.2,0.4c-7.9,1.8-12.8,9.6-11,17.5
				s9.6,12.8,17.5,11s12.8-9.6,11-17.5l0,0C154.8,328.3,148.7,323.7,142,323.7z"/>
		</g>
		<g>
			<path class="st2" d="M202.3,217.9c-9.9,0-18.8-6.8-21.1-16.9c-2.6-11.6,4.7-23.3,16.3-25.9c5.6-1.3,11.4-0.3,16.3,2.8
				c4.9,3.1,8.3,7.9,9.6,13.5l0,0c1.3,5.6,0.3,11.4-2.8,16.3c-3.1,4.9-7.9,8.3-13.5,9.6C205.5,217.7,203.9,217.9,202.3,217.9z
				 M202.3,179.1c-1.3,0-2.6,0.1-3.8,0.4c-4.5,1-8.3,3.7-10.7,7.6c-2.4,3.9-3.2,8.5-2.2,12.9c1,4.4,3.7,8.3,7.6,10.7
				s8.5,3.2,12.9,2.2c4.5-1,8.3-3.7,10.7-7.6c2.4-3.9,3.2-8.5,2.2-12.9l0,0c-1-4.5-3.7-8.3-7.6-10.7
				C208.7,180,205.5,179.1,202.3,179.1z"/>
		</g>
		<g>
			<path class="st2" d="M-24.5,184.2c-4,0-7.6-2.8-8.6-6.8c-0.5-2.3-0.1-4.6,1.1-6.6c1.3-2,3.2-3.4,5.5-3.9
				c4.7-1.1,9.4,1.9,10.5,6.6l0,0c1.1,4.7-1.9,9.4-6.6,10.5C-23.2,184.1-23.9,184.2-24.5,184.2z M-24.5,171.1c-0.3,0-0.6,0-0.9,0.1
				c-1.1,0.3-2.1,0.9-2.7,1.9c-0.6,1-0.8,2.1-0.6,3.2c0.5,2.3,2.8,3.8,5.1,3.2c2.3-0.5,3.8-2.8,3.2-5.1l0,0
				C-20.8,172.4-22.5,171.1-24.5,171.1z"/>
		</g>
		<g>
			<path class="st2" d="M45.6,378.2c-4,0-7.6-2.8-8.6-6.8c-1.1-4.7,1.9-9.4,6.6-10.5c2.3-0.5,4.6-0.1,6.6,1.1s3.4,3.2,3.9,5.5
				s0.1,4.6-1.1,6.6c-1.3,2-3.2,3.4-5.5,3.9C46.9,378.1,46.3,378.2,45.6,378.2z M45.6,365.1c-0.3,0-0.6,0-1,0.1
				c-2.3,0.5-3.8,2.8-3.2,5.1c0.5,2.3,2.8,3.8,5.1,3.2c1.1-0.3,2.1-0.9,2.7-1.9c0.6-1,0.8-2.1,0.6-3.2l0,0c-0.3-1.1-0.9-2.1-1.9-2.7
				C47.2,365.4,46.4,365.1,45.6,365.1z"/>
		</g>
		<g>
			<path class="st2" d="M216.6,329.2c-1.6,0-3.2-0.5-4.7-1.4c-2-1.3-3.4-3.2-3.9-5.5s-0.1-4.6,1.1-6.6c1.3-2,3.2-3.4,5.5-3.9
				c4.7-1.1,9.4,1.9,10.5,6.6c0.5,2.3,0.1,4.6-1.1,6.6c-1.3,2-3.2,3.4-5.5,3.9C217.9,329.1,217.2,329.2,216.6,329.2z M216.6,316.1
				c-0.3,0-0.6,0-0.9,0.1c-1.1,0.3-2.1,0.9-2.7,1.9s-0.8,2.1-0.6,3.2c0.2,1.1,0.9,2.1,1.9,2.7c1,0.6,2.1,0.8,3.2,0.6
				c1.1-0.3,2.1-0.9,2.7-1.9s0.8-2.1,0.6-3.2l0,0C220.3,317.4,218.6,316.1,216.6,316.1z"/>
		</g>
		<g>
			<path class="st2" d="M143.2,136.8c-1.6,0-3.2-0.5-4.7-1.4c-2-1.3-3.4-3.2-3.9-5.5c-1.1-4.7,1.9-9.4,6.6-10.5
				c2.3-0.5,4.6-0.1,6.6,1.1c2,1.3,3.4,3.2,3.9,5.5c0.5,2.3,0.1,4.6-1.1,6.6c-1.3,2-3.2,3.4-5.5,3.9
				C144.5,136.7,143.9,136.8,143.2,136.8z M143.3,123.7c-0.3,0-0.6,0-1,0.1c-2.3,0.5-3.8,2.8-3.2,5.1c0.3,1.1,0.9,2.1,1.9,2.7
				c1,0.6,2.1,0.8,3.2,0.6c1.1-0.3,2.1-0.9,2.7-1.9c0.6-1,0.8-2.1,0.6-3.2l0,0c-0.3-1.1-0.9-2.1-1.9-2.7
				C144.8,123.9,144.1,123.7,143.3,123.7z"/>
		</g>
		<g>
			<path class="st2" d="M53.4,183c-2.9,0-5.8-0.8-8.3-2.4c-3.5-2.2-6-5.7-6.9-9.8c-1.9-8.4,3.4-16.8,11.8-18.7
				c4.1-0.9,8.3-0.2,11.8,2s6,5.7,6.9,9.8c0.9,4.1,0.2,8.3-2,11.8s-5.7,6-9.8,6.9C55.7,182.9,54.5,183,53.4,183z M53.4,156.3
				c-0.8,0-1.7,0.1-2.5,0.3c-6,1.4-9.7,7.3-8.4,13.3c0.7,2.9,2.4,5.4,4.9,6.9c2.5,1.6,5.5,2.1,8.4,1.4s5.4-2.4,6.9-4.9
				s2.1-5.5,1.4-8.4l0,0c-0.7-2.9-2.4-5.4-4.9-6.9C57.5,156.9,55.5,156.3,53.4,156.3z"/>
		</g>
		<g>
			<g>
				<path class="st2" d="M95.6,279.9c-16.9,0-30.7-13.8-30.7-30.7s13.8-30.7,30.7-30.7s30.7,13.8,30.7,30.7S112.5,279.9,95.6,279.9z
					 M95.6,223c-14.4,0-26.2,11.7-26.2,26.2c0,14.4,11.7,26.2,26.2,26.2s26.2-11.7,26.2-26.2C121.8,234.8,110,223,95.6,223z"/>
			</g>
			<g>
				<path class="st2" d="M94.6,279.9c-9.2,0-16.5-13.5-16.5-30.7s7.2-30.7,16.5-30.7s16.5,13.5,16.5,30.7S103.8,279.9,94.6,279.9z
					 M94.6,223c-7,0-12,13.8-12,26.2c0,12.4,4.9,26.2,12,26.2s12-13.8,12-26.2C106.6,236.8,101.6,223,94.6,223z"/>
			</g>
			<g>
				<path class="st2" d="M124,251.5H67.2c-1.2,0-2.2-1-2.2-2.2s1-2.2,2.2-2.2H124c1.2,0,2.2,1,2.2,2.2S125.3,251.5,124,251.5z"/>
			</g>
		</g>
	</g>
</g>
</svg>
