<?xml version="1.0" encoding="utf-8"?>
<!-- Generator: Adobe Illustrator 21.1.0, SVG Export Plug-In . SVG Version: 6.00 Build 0)  -->
<svg version="1.1" xmlns="http://www.w3.org/2000/svg" xmlns:xlink="http://www.w3.org/1999/xlink" x="0px" y="0px"
	 viewBox="0 0 122.4 122.4" style="enable-background:new 0 0 122.4 122.4;" xml:space="preserve">
<style type="text/css">
	.st0{display:none;}
	.st1{display:inline;fill:#FFFFFF;}
	.st2{display:inline;}
	.st3{fill:#2B2B2B;}
	.st4{fill:#FFFFFF;}
	.st5{fill:#5FD3D3;}
	.st6{fill:none;stroke:#2B2B2B;stroke-width:4.25;stroke-linecap:round;stroke-linejoin:round;stroke-miterlimit:10;}
	.st7{display:inline;fill:#2B2B2B;}
	.st8{fill:#60D3D1;}
	.st9{fill:none;stroke:#2B2B2B;stroke-width:4.5;stroke-linecap:round;stroke-linejoin:round;stroke-miterlimit:10;}
	.st10{fill:#66D6D3;}
	.st11{fill:#60D3D1;stroke:#2B2B2B;stroke-width:4.5;stroke-linecap:round;stroke-linejoin:round;stroke-miterlimit:10;}
	.st12{fill:none;stroke:#60D3D1;stroke-width:4.5;stroke-linecap:round;stroke-linejoin:round;}
	.st13{fill:none;stroke:#60D3D1;stroke-width:4.5;stroke-linecap:round;stroke-linejoin:round;stroke-dasharray:7.8741,12.7954;}
	.st14{fill:none;stroke:#60D3D1;stroke-width:4.5;stroke-linecap:round;stroke-linejoin:round;stroke-miterlimit:10;}
	
		.st15{fill:none;stroke:#60D3D1;stroke-width:4.5;stroke-linecap:round;stroke-linejoin:round;stroke-miterlimit:10;stroke-dasharray:8,13;}
	.st16{fill:none;stroke:#2B2B2B;stroke-width:4.25;stroke-miterlimit:10;}
	.st17{fill:none;stroke:#2B2B2B;stroke-width:4.5;stroke-linecap:round;stroke-linejoin:round;}
	.st18{fill:none;stroke:#2B2B2B;stroke-width:4.5;stroke-linecap:round;stroke-linejoin:round;stroke-dasharray:7.8741,12.7954;}
	
		.st19{fill:none;stroke:#2B2B2B;stroke-width:4.5;stroke-linecap:round;stroke-linejoin:round;stroke-miterlimit:10;stroke-dasharray:8,13;}
	.st20{fill:#7FDCDC;}
	.st21{fill:none;stroke:#2B2B2B;stroke-width:4.5;stroke-linejoin:round;stroke-miterlimit:10;}
	.st22{fill:none;stroke:#2B2B2B;stroke-width:4.25;stroke-linecap:round;stroke-miterlimit:10;}
	
		.st23{fill:none;stroke:#2B2B2B;stroke-width:8;stroke-linecap:round;stroke-linejoin:round;stroke-miterlimit:10;stroke-dasharray:0,16;}
	
		.st24{fill:none;stroke:#60D3D1;stroke-width:8;stroke-linecap:round;stroke-linejoin:round;stroke-miterlimit:10;stroke-dasharray:0,16;}
	.st25{fill:none;stroke:#2B2B2B;stroke-width:4;stroke-linecap:round;stroke-linejoin:round;stroke-miterlimit:10;}
	.st26{fill:none;stroke:#2B2B2B;stroke-width:3;stroke-linecap:round;stroke-linejoin:round;stroke-miterlimit:10;}
	.st27{fill:#FFFFFF;stroke:#2B2B2B;stroke-width:4.5;stroke-linecap:round;stroke-linejoin:round;stroke-miterlimit:10;}
	.st28{opacity:0.7;}
	.st29{opacity:0.7;fill:#00BAB6;}
	.st30{fill:none;stroke:#2B2B2B;stroke-width:4.5;stroke-linecap:round;stroke-linejoin:round;stroke-dasharray:7.6106,12.3672;}
	.st31{fill:none;stroke:#60D3D1;stroke-width:4.5;stroke-linecap:round;stroke-linejoin:round;stroke-dasharray:7.6106,12.3672;}
	.st32{fill:none;stroke:#2B2B2B;stroke-width:4.25;stroke-linecap:round;stroke-linejoin:round;}
	.st33{fill:#2B2B2B;stroke:#2B2B2B;stroke-width:2;stroke-miterlimit:10;}
	.st34{fill:none;stroke:#2B2B2B;stroke-width:4.5;stroke-linecap:round;stroke-linejoin:round;stroke-dasharray:7.4662,12.1326;}
	.st35{fill:none;stroke:#2B2B2B;stroke-width:4.5;stroke-linecap:round;stroke-linejoin:round;stroke-dasharray:7.9336,12.8921;}
	.st36{fill:none;stroke:#60D3D1;stroke-width:4.5;stroke-linecap:round;stroke-linejoin:round;stroke-dasharray:7.4662,12.1326;}
	.st37{fill:none;stroke:#60D3D1;stroke-width:4.5;stroke-linecap:round;stroke-linejoin:round;stroke-dasharray:7.9336,12.8921;}
	.st38{fill:none;stroke:#2B2B2B;stroke-width:4.5;stroke-miterlimit:10;}
	.st39{fill:none;stroke:#2B2B2B;stroke-width:4.5;stroke-linecap:round;stroke-miterlimit:10;}
	.st40{fill:none;stroke:#60D3D1;stroke-width:4.5;stroke-miterlimit:10;}
	.st41{fill:none;stroke:#60D3D1;stroke-width:4.5;stroke-linecap:round;stroke-miterlimit:10;}
	.st42{fill:none;}
	.st43{fill:none;stroke:#2B2B2B;stroke-width:4.5;stroke-linecap:round;stroke-linejoin:round;stroke-dasharray:7.8378,12.1921;}
	.st44{fill:none;stroke:#60D3D1;stroke-width:4.5;stroke-linecap:round;stroke-linejoin:round;stroke-dasharray:7.8378,12.1921;}
	.st45{fill:none;stroke:#2B2B2B;stroke-width:5.04;stroke-linecap:round;stroke-linejoin:round;}
	.st46{fill:none;stroke:#60D3D1;stroke-width:5.04;stroke-linecap:round;stroke-linejoin:round;}
	.st47{fill:none;stroke:#2B2B2B;stroke-width:4.5;stroke-linecap:round;stroke-linejoin:round;stroke-dasharray:8.0115,13.0187;}
	.st48{fill:none;stroke:#2B2B2B;stroke-width:4.5;stroke-linecap:round;stroke-linejoin:round;stroke-dasharray:8.1839,13.2989;}
	.st49{fill:none;stroke:#60D3D1;stroke-width:4.5;stroke-linecap:round;stroke-linejoin:round;stroke-dasharray:8.0115,13.0187;}
	.st50{fill:none;stroke:#60D3D1;stroke-width:4.5;stroke-linecap:round;stroke-linejoin:round;stroke-dasharray:8.1839,13.2989;}
	.st51{fill:none;stroke:#60D3D1;stroke-width:4.25;stroke-linecap:round;stroke-linejoin:round;stroke-miterlimit:10;}
	.st52{fill:none;stroke:#2B2B2B;stroke-width:4.5;stroke-linecap:round;stroke-linejoin:round;stroke-dasharray:8.2632,13.4276;}
	.st53{fill:none;stroke:#60D3D1;stroke-width:4.5;stroke-linecap:round;stroke-linejoin:round;stroke-dasharray:8.2632,13.4276;}
	.st54{fill:none;stroke:#2B2B2B;stroke-width:4.5;stroke-linecap:round;stroke-linejoin:round;stroke-dasharray:6.8302,11.0991;}
	.st55{fill:none;stroke:#60D3D1;stroke-width:4.5;stroke-linecap:round;stroke-linejoin:round;stroke-dasharray:6.8302,11.0991;}
	.st56{fill:none;stroke:#2B2B2B;stroke-width:4.5;stroke-linecap:round;stroke-linejoin:round;stroke-dasharray:8.0289,13.0469;}
	.st57{fill:none;stroke:#60D3D1;stroke-width:4.5;stroke-linecap:round;stroke-linejoin:round;stroke-dasharray:8.0289,13.0469;}
	.st58{fill:none;stroke:#2B2B2B;stroke-width:4.5;stroke-linecap:round;stroke-linejoin:round;stroke-dasharray:10.764,13.9932;}
	.st59{fill:none;stroke:#60D3D1;stroke-width:4.5;stroke-linecap:round;stroke-linejoin:round;stroke-dasharray:10.764,13.9932;}
	.st60{fill:none;stroke:#60D3D1;stroke-width:4.5;stroke-linejoin:round;stroke-miterlimit:10;}
</style>
<g id="labels" class="st0">
	<rect x="-2412.7" y="-876.9" class="st1" width="6257.5" height="1291.4"/>
</g>
<g id="gray_background" class="st0">
</g>
<g id="Layer_1">
	<g>
		<g>
			<path class="st8" d="M94.1,51.3c0-14.5-11.8-26.3-26.3-26.3S41.5,36.8,41.5,51.3c0,20.1,13.6,15.7,13.6,38.8h25.3
				C80.5,70.2,94.1,71.4,94.1,51.3z"/>
		</g>
		<g>
			<path class="st3" d="M74.5,86.3H49.1c-1.2,0-2.1-1-2.1-2.1c0-11.3-3.3-15.4-6.7-19.7c-3.4-4.3-6.9-8.7-6.9-19.1
				c0-15.7,12.7-28.4,28.4-28.4s28.4,12.7,28.4,28.4c0,10.8-3.7,15.8-7.2,20.7c-3.3,4.5-6.4,8.8-6.4,18.1
				C76.6,85.3,75.7,86.3,74.5,86.3z M51.2,82h21.2c0.5-9.2,3.8-13.9,7.1-18.5C82.9,59,86,54.7,86,45.3C86,32,75.1,21.2,61.8,21.2
				S37.7,32,37.7,45.3c0,9,2.8,12.4,6,16.5C47,66.1,50.8,70.8,51.2,82z"/>
		</g>
		<g>
			<path class="st3" d="M72,96.4H51.6c-1.2,0-2.1-1-2.1-2.1s1-2.1,2.1-2.1H72c1.2,0,2.1,1,2.1,2.1S73.2,96.4,72,96.4z"/>
		</g>
		<g>
			<path class="st3" d="M66.4,106.5h-9.2c-1.2,0-2.1-1-2.1-2.1s1-2.1,2.1-2.1h9.2c1.2,0,2.1,1,2.1,2.1S67.6,106.5,66.4,106.5z"/>
		</g>
		<g>
			<path class="st3" d="M61.8,74.3c-1.2,0-2.1-1-2.1-2.1V53.3c0-1.2,1-2.1,2.1-2.1s2.1,1,2.1,2.1v18.9C63.9,73.3,63,74.3,61.8,74.3z
				"/>
		</g>
		<g>
			<path class="st3" d="M69.3,55.4h-15c-1.2,0-2.1-1-2.1-2.1s1-2.1,2.1-2.1h15c1.2,0,2.1,1,2.1,2.1S70.5,55.4,69.3,55.4z"/>
		</g>
		<g>
			<path class="st3" d="M69.2,55.3c-0.5,0-1.1-0.2-1.5-0.6c-0.8-0.8-0.8-2.2,0-3l5.9-5.9c0.8-0.8,2.2-0.8,3,0c0.8,0.8,0.8,2.2,0,3
				l-5.9,5.9C70.3,55.1,69.7,55.3,69.2,55.3z"/>
		</g>
		<g>
			<path class="st3" d="M54.3,55.4c-0.5,0-1.1-0.2-1.5-0.6l-5.5-5.5c-0.8-0.8-0.8-2.2,0-3c0.8-0.8,2.2-0.8,3,0l5.5,5.5
				c0.8,0.8,0.8,2.2,0,3C55.3,55.2,54.8,55.4,54.3,55.4z"/>
		</g>
		<g>
			<path class="st3" d="M24,46.8h-9.5c-1.2,0-2.1-1-2.1-2.1s1-2.1,2.1-2.1H24c1.2,0,2.1,1,2.1,2.1S25.1,46.8,24,46.8z"/>
		</g>
		<g>
			<path class="st3" d="M29.3,29.9c-0.4,0-0.9-0.1-1.2-0.4L20.3,24c-1-0.7-1.2-2-0.5-3c0.7-1,2-1.2,3-0.5l7.7,5.5c1,0.7,1.2,2,0.5,3
				C30.6,29.6,29.9,29.9,29.3,29.9z"/>
		</g>
		<g>
			<path class="st3" d="M21.5,69.2c-0.7,0-1.3-0.3-1.7-0.9c-0.7-1-0.5-2.3,0.5-3l7.7-5.5c1-0.7,2.3-0.5,3,0.5c0.7,1,0.5,2.3-0.5,3
				l-7.7,5.5C22.4,69.1,22,69.2,21.5,69.2z"/>
		</g>
		<g>
			<path class="st3" d="M109.2,46.8h-9.5c-1.2,0-2.1-1-2.1-2.1s1-2.1,2.1-2.1h9.5c1.2,0,2.1,1,2.1,2.1S110.4,46.8,109.2,46.8z"/>
		</g>
		<g>
			<path class="st3" d="M102.2,69.2c-0.4,0-0.9-0.1-1.2-0.4l-7.7-5.5c-1-0.7-1.2-2-0.5-3c0.7-1,2-1.2,3-0.5l7.7,5.5
				c1,0.7,1.2,2,0.5,3C103.5,68.9,102.8,69.2,102.2,69.2z"/>
		</g>
		<g>
			<path class="st3" d="M94.4,29.9c-0.7,0-1.3-0.3-1.7-0.9c-0.7-1-0.5-2.3,0.5-3l7.7-5.5c1-0.7,2.3-0.5,3,0.5c0.7,1,0.5,2.3-0.5,3
				l-7.7,5.5C95.3,29.8,94.9,29.9,94.4,29.9z"/>
		</g>
	</g>
</g>
</svg>
