<?xml version="1.0" encoding="utf-8"?>
<!-- Generator: Adobe Illustrator 21.1.0, SVG Export Plug-In . SVG Version: 6.00 Build 0)  -->
<svg version="1.1" xmlns="http://www.w3.org/2000/svg" xmlns:xlink="http://www.w3.org/1999/xlink" x="0px" y="0px"
	 viewBox="0 0 122.4 122.4" style="enable-background:new 0 0 122.4 122.4;" xml:space="preserve">
<style type="text/css">
	.st0{display:none;}
	.st1{display:inline;fill:#FFFFFF;}
	.st2{display:inline;}
	.st3{fill:#2B2B2B;}
	.st4{fill:#FFFFFF;}
	.st5{fill:#5FD3D3;}
	.st6{fill:none;stroke:#2B2B2B;stroke-width:4.25;stroke-linecap:round;stroke-linejoin:round;stroke-miterlimit:10;}
	.st7{display:inline;fill:#2B2B2B;}
	.st8{fill:#60D3D1;}
	.st9{fill:none;stroke:#2B2B2B;stroke-width:4.5;stroke-linecap:round;stroke-linejoin:round;stroke-miterlimit:10;}
	.st10{fill:#66D6D3;}
	.st11{fill:#60D3D1;stroke:#2B2B2B;stroke-width:4.5;stroke-linecap:round;stroke-linejoin:round;stroke-miterlimit:10;}
	.st12{fill:none;stroke:#60D3D1;stroke-width:4.5;stroke-linecap:round;stroke-linejoin:round;}
	.st13{fill:none;stroke:#60D3D1;stroke-width:4.5;stroke-linecap:round;stroke-linejoin:round;stroke-dasharray:7.8741,12.7954;}
	.st14{fill:none;stroke:#60D3D1;stroke-width:4.5;stroke-linecap:round;stroke-linejoin:round;stroke-miterlimit:10;}
	
		.st15{fill:none;stroke:#60D3D1;stroke-width:4.5;stroke-linecap:round;stroke-linejoin:round;stroke-miterlimit:10;stroke-dasharray:8,13;}
	.st16{fill:none;stroke:#2B2B2B;stroke-width:4.25;stroke-miterlimit:10;}
	.st17{fill:none;stroke:#2B2B2B;stroke-width:4.5;stroke-linecap:round;stroke-linejoin:round;}
	.st18{fill:none;stroke:#2B2B2B;stroke-width:4.5;stroke-linecap:round;stroke-linejoin:round;stroke-dasharray:7.8741,12.7954;}
	
		.st19{fill:none;stroke:#2B2B2B;stroke-width:4.5;stroke-linecap:round;stroke-linejoin:round;stroke-miterlimit:10;stroke-dasharray:8,13;}
	.st20{fill:#7FDCDC;}
	.st21{fill:none;stroke:#2B2B2B;stroke-width:4.5;stroke-linejoin:round;stroke-miterlimit:10;}
	.st22{fill:none;stroke:#2B2B2B;stroke-width:4.25;stroke-linecap:round;stroke-miterlimit:10;}
	
		.st23{fill:none;stroke:#2B2B2B;stroke-width:8;stroke-linecap:round;stroke-linejoin:round;stroke-miterlimit:10;stroke-dasharray:0,16;}
	
		.st24{fill:none;stroke:#60D3D1;stroke-width:8;stroke-linecap:round;stroke-linejoin:round;stroke-miterlimit:10;stroke-dasharray:0,16;}
	.st25{fill:none;stroke:#2B2B2B;stroke-width:4;stroke-linecap:round;stroke-linejoin:round;stroke-miterlimit:10;}
	.st26{fill:none;stroke:#2B2B2B;stroke-width:3;stroke-linecap:round;stroke-linejoin:round;stroke-miterlimit:10;}
	.st27{fill:#FFFFFF;stroke:#2B2B2B;stroke-width:4.5;stroke-linecap:round;stroke-linejoin:round;stroke-miterlimit:10;}
	.st28{opacity:0.7;}
	.st29{opacity:0.7;fill:#00BAB6;}
	.st30{fill:none;stroke:#2B2B2B;stroke-width:4.5;stroke-linecap:round;stroke-linejoin:round;stroke-dasharray:7.6106,12.3672;}
	.st31{fill:none;stroke:#60D3D1;stroke-width:4.5;stroke-linecap:round;stroke-linejoin:round;stroke-dasharray:7.6106,12.3672;}
	.st32{fill:none;stroke:#2B2B2B;stroke-width:4.25;stroke-linecap:round;stroke-linejoin:round;}
	.st33{fill:#2B2B2B;stroke:#2B2B2B;stroke-width:2;stroke-miterlimit:10;}
	.st34{fill:none;stroke:#2B2B2B;stroke-width:4.5;stroke-linecap:round;stroke-linejoin:round;stroke-dasharray:7.4662,12.1326;}
	.st35{fill:none;stroke:#2B2B2B;stroke-width:4.5;stroke-linecap:round;stroke-linejoin:round;stroke-dasharray:7.9336,12.8921;}
	.st36{fill:none;stroke:#60D3D1;stroke-width:4.5;stroke-linecap:round;stroke-linejoin:round;stroke-dasharray:7.4662,12.1326;}
	.st37{fill:none;stroke:#60D3D1;stroke-width:4.5;stroke-linecap:round;stroke-linejoin:round;stroke-dasharray:7.9336,12.8921;}
	.st38{fill:none;stroke:#2B2B2B;stroke-width:4.5;stroke-miterlimit:10;}
	.st39{fill:none;stroke:#2B2B2B;stroke-width:4.5;stroke-linecap:round;stroke-miterlimit:10;}
	.st40{fill:none;stroke:#60D3D1;stroke-width:4.5;stroke-miterlimit:10;}
	.st41{fill:none;stroke:#60D3D1;stroke-width:4.5;stroke-linecap:round;stroke-miterlimit:10;}
	.st42{fill:none;}
	.st43{fill:none;stroke:#2B2B2B;stroke-width:4.5;stroke-linecap:round;stroke-linejoin:round;stroke-dasharray:7.8378,12.1921;}
	.st44{fill:none;stroke:#60D3D1;stroke-width:4.5;stroke-linecap:round;stroke-linejoin:round;stroke-dasharray:7.8378,12.1921;}
	.st45{fill:none;stroke:#2B2B2B;stroke-width:5.04;stroke-linecap:round;stroke-linejoin:round;}
	.st46{fill:none;stroke:#60D3D1;stroke-width:5.04;stroke-linecap:round;stroke-linejoin:round;}
	.st47{fill:none;stroke:#2B2B2B;stroke-width:4.5;stroke-linecap:round;stroke-linejoin:round;stroke-dasharray:8.0115,13.0187;}
	.st48{fill:none;stroke:#2B2B2B;stroke-width:4.5;stroke-linecap:round;stroke-linejoin:round;stroke-dasharray:8.1839,13.2989;}
	.st49{fill:none;stroke:#60D3D1;stroke-width:4.5;stroke-linecap:round;stroke-linejoin:round;stroke-dasharray:8.0115,13.0187;}
	.st50{fill:none;stroke:#60D3D1;stroke-width:4.5;stroke-linecap:round;stroke-linejoin:round;stroke-dasharray:8.1839,13.2989;}
	.st51{fill:none;stroke:#60D3D1;stroke-width:4.25;stroke-linecap:round;stroke-linejoin:round;stroke-miterlimit:10;}
	.st52{fill:none;stroke:#2B2B2B;stroke-width:4.5;stroke-linecap:round;stroke-linejoin:round;stroke-dasharray:8.2632,13.4276;}
	.st53{fill:none;stroke:#60D3D1;stroke-width:4.5;stroke-linecap:round;stroke-linejoin:round;stroke-dasharray:8.2632,13.4276;}
	.st54{fill:none;stroke:#2B2B2B;stroke-width:4.5;stroke-linecap:round;stroke-linejoin:round;stroke-dasharray:6.8302,11.0991;}
	.st55{fill:none;stroke:#60D3D1;stroke-width:4.5;stroke-linecap:round;stroke-linejoin:round;stroke-dasharray:6.8302,11.0991;}
	.st56{fill:none;stroke:#2B2B2B;stroke-width:4.5;stroke-linecap:round;stroke-linejoin:round;stroke-dasharray:8.0289,13.0469;}
	.st57{fill:none;stroke:#60D3D1;stroke-width:4.5;stroke-linecap:round;stroke-linejoin:round;stroke-dasharray:8.0289,13.0469;}
	.st58{fill:none;stroke:#2B2B2B;stroke-width:4.5;stroke-linecap:round;stroke-linejoin:round;stroke-dasharray:10.764,13.9932;}
	.st59{fill:none;stroke:#60D3D1;stroke-width:4.5;stroke-linecap:round;stroke-linejoin:round;stroke-dasharray:10.764,13.9932;}
	.st60{fill:none;stroke:#60D3D1;stroke-width:4.5;stroke-linejoin:round;stroke-miterlimit:10;}
</style>
<g id="labels" class="st0">
	<rect x="-3572.7" y="-848.9" class="st1" width="6257.5" height="1291.4"/>
</g>
<g id="gray_background" class="st0">
</g>
<g id="Layer_1">
	<g>
		<g>
			<rect x="36.9" y="59.7" class="st8" width="24.9" height="24.9"/>
		</g>
		<g>
			<rect x="72" y="59.7" class="st8" width="24.9" height="24.9"/>
		</g>
		<g>
			<path class="st3" d="M96,94.6H25.5c-4.9,0-9-4-9-9V33.8c0-4.9,4-9,9-9H96c4.9,0,9,4,9,9v51.8C105,90.6,101,94.6,96,94.6z
				 M25.5,29.1c-2.6,0-4.7,2.1-4.7,4.7v51.8c0,2.6,2.1,4.7,4.7,4.7H96c2.6,0,4.7-2.1,4.7-4.7V33.8c0-2.6-2.1-4.7-4.7-4.7H25.5z"/>
		</g>
		<g>
			<rect x="18.7" y="39.1" class="st3" width="84.2" height="4.2"/>
		</g>
		<g>
			<path class="st3" d="M27.3,37c-1.5,0-2.7-1.2-2.7-2.7s1.2-2.7,2.7-2.7s2.7,1.2,2.7,2.7S28.8,37,27.3,37z M27.3,32.7
				c-0.8,0-1.5,0.7-1.5,1.5s0.7,1.5,1.5,1.5s1.5-0.7,1.5-1.5S28.1,32.7,27.3,32.7z"/>
		</g>
		<g>
			<path class="st3" d="M35.9,37c-1.5,0-2.7-1.2-2.7-2.7s1.2-2.7,2.7-2.7s2.7,1.2,2.7,2.7S37.5,37,35.9,37z M35.9,32.7
				c-0.8,0-1.5,0.7-1.5,1.5s0.7,1.5,1.5,1.5s1.5-0.7,1.5-1.5S36.8,32.7,35.9,32.7z"/>
		</g>
		<g>
			<path class="st3" d="M44.6,37c-1.5,0-2.7-1.2-2.7-2.7s1.2-2.7,2.7-2.7s2.7,1.2,2.7,2.7S46.1,37,44.6,37z M44.6,32.7
				c-0.8,0-1.5,0.7-1.5,1.5s0.7,1.5,1.5,1.5s1.5-0.7,1.5-1.5S45.4,32.7,44.6,32.7z"/>
		</g>
		<g>
			<path class="st3" d="M55.8,80.8H30.9c-1.2,0-2.2-1-2.2-2.2V53.7c0-1.2,1-2.2,2.2-2.2h24.9c1.2,0,2.2,1,2.2,2.2v24.9
				C58,79.8,57,80.8,55.8,80.8z M33.2,76.3h20.4V55.9H33.2V76.3z"/>
		</g>
		<g>
			<g>
				<path class="st3" d="M90.9,80.8h-5c-1.2,0-2.2-1-2.2-2.2s1-2.2,2.2-2.2h2.8v-2.8c0-1.2,1-2.2,2.2-2.2s2.2,1,2.2,2.2v5
					C93.1,79.8,92.1,80.8,90.9,80.8z"/>
			</g>
			<g>
				<path class="st3" d="M71,80.8h-5c-1.2,0-2.3-1-2.3-2.2v-5c0-1.2,1-2.2,2.3-2.2s2.2,1,2.2,2.2v2.8H71c1.2,0,2.2,1,2.2,2.2
					S72.3,80.8,71,80.8z"/>
			</g>
			<g>
				<path class="st3" d="M66,60.9c-1.2,0-2.3-1-2.3-2.2v-5c0-1.2,1-2.2,2.3-2.2h5c1.2,0,2.2,1,2.2,2.2s-1,2.2-2.2,2.2h-2.8v2.8
					C68.3,59.9,67.3,60.9,66,60.9z"/>
			</g>
			<g>
				<path class="st3" d="M90.9,60.9c-1.2,0-2.2-1-2.2-2.2v-2.8h-2.8c-1.2,0-2.2-1-2.2-2.2s1-2.2,2.2-2.2h5c1.2,0,2.2,1,2.2,2.2v5
					C93.1,59.9,92.1,60.9,90.9,60.9z"/>
			</g>
		</g>
	</g>
</g>
</svg>
