<?xml version="1.0" encoding="utf-8"?>
<!-- Generator: Adobe Illustrator 21.1.0, SVG Export Plug-In . SVG Version: 6.00 Build 0)  -->
<svg version="1.1" id="Layer_1" xmlns="http://www.w3.org/2000/svg" xmlns:xlink="http://www.w3.org/1999/xlink" x="0px" y="0px"
	 viewBox="0 0 122.4 122.4" style="enable-background:new 0 0 122.4 122.4;" xml:space="preserve">
<style type="text/css">
	.st0{display:none;}
	.st1{display:inline;fill:#FFFFFF;}
	.st2{fill:#60D3D1;}
	.st3{fill:#2B2B2B;}
</style>
<g id="labels" class="st0">
	<rect x="-4709.3" y="-867.7" class="st1" width="6257.5" height="1291.4"/>
</g>
<g id="gray_background" class="st0">
</g>
<g id="Layer_1_1_">
	<g>
		<g>
			<circle class="st2" cx="67.9" cy="72.5" r="17.2"/>
		</g>
		<g>
			<path class="st3" d="M98.4,95.3H25.6c-4.9,0-9-4-9-9V32.7c0-4.9,4-9,9-9h72.8c4.9,0,9,4,9,9v53.6
				C107.4,91.3,103.3,95.3,98.4,95.3z M25.6,28c-2.6,0-4.7,2.1-4.7,4.7v53.6c0,2.6,2.1,4.7,4.7,4.7h72.8c2.6,0,4.7-2.1,4.7-4.7V32.7
				c0-2.6-2.1-4.7-4.7-4.7H25.6z"/>
		</g>
		<g>
			<rect x="18.7" y="38.4" class="st3" width="86.5" height="4.2"/>
		</g>
		<g>
			<path class="st3" d="M27.6,36.1c-1.5,0-2.8-1.2-2.8-2.8c0-1.5,1.2-2.8,2.8-2.8c1.5,0,2.8,1.2,2.8,2.8
				C30.3,34.9,29.1,36.1,27.6,36.1z"/>
		</g>
		<g>
			<path class="st3" d="M36.5,36.1c-1.5,0-2.8-1.2-2.8-2.8c0-1.5,1.2-2.8,2.8-2.8s2.8,1.2,2.8,2.8C39.2,34.9,38,36.1,36.5,36.1z"/>
		</g>
		<g>
			<path class="st3" d="M45.3,36.1c-1.5,0-2.8-1.2-2.8-2.8c0-1.5,1.2-2.8,2.8-2.8s2.8,1.2,2.8,2.8C48.1,34.9,46.9,36.1,45.3,36.1z"
				/>
		</g>
		<g>
			<path class="st3" d="M61.7,85.6c-10.6,0-19.3-8.7-19.3-19.3S51.1,47,61.7,47C72.4,47,81,55.7,81,66.3S72.4,85.6,61.7,85.6z
				 M61.7,51.3c-8.3,0-15,6.7-15,15s6.7,15,15,15s15-6.7,15-15S70,51.3,61.7,51.3z"/>
		</g>
		<g>
			<path class="st3" d="M61.7,85.6c-1.2,0-2.1-1-2.1-2.1V49.1c0-1.2,1-2.1,2.1-2.1s2.1,1,2.1,2.1v34.3
				C63.9,84.6,62.9,85.6,61.7,85.6z"/>
		</g>
		<g>
			<path class="st3" d="M61.7,68.4c-0.5,0-1.1-0.2-1.5-0.6c-0.8-0.8-0.8-2.2,0-3l12.1-12.1c0.8-0.8,2.2-0.8,3,0s0.8,2.2,0,3
				L63.2,67.8C62.8,68.2,62.3,68.4,61.7,68.4z"/>
		</g>
	</g>
</g>
</svg>
